<svg fill="none" height="92" viewBox="0 0 92 92" width="92" xmlns="http://www.w3.org/2000/svg"><rect fill="#ff1a1a" height="91.5618" rx="45.7809" width="91.5618"/><path d="m39.677 52.2238 2.1479-.4881c.0449-.0102.1208-.0271.2105-.0559.5933-.1563 1.1017-.5327 1.418-1.0499.3164-.5172.416-1.1349.2779-1.7228l-.0086-.0373c-.071-.2817-.1951-.5479-.3657-.7847-.2406-.2999-.5383-.5509-.8765-.739-.3982-.2229-.8149-.4122-1.2456-.566l-2.355-.8457c-1.3215-.4831-2.6431-.9525-3.9784-1.4118-.8644-.3017-1.5976-.5678-2.2342-.7627-.1212-.0329-.2414-.0691-.3606-.1085-.7694-.2304-1.3112-.3271-1.7684-.3304-.3055-.0112-.6099.0432-.8919.1593-.2947.1253-.5592.3101-.7764.5423-.1078.1202-.2091.2458-.3036.3763-.1838.2774-.3355.5741-.4521.8847-.4375 1.2694-.6556 2.6019-.6452 3.9421.0086 1.2101.0414 2.7642.7194 3.8184.1639.2712.383.505.6436.6864.483.3271.9695.3712 1.4785.4067.7591.0526 1.4923-.1288 2.2256-.2965l7.1356-1.6186zm23.9637-11.201c-.5863-1.209-1.3747-2.3129-2.3325-3.2659-.1238-.1212-.2564-.2334-.3968-.3356-.1297-.0956-.2645-.1844-.4037-.2661-.1434-.0771-.2908-.1467-.4417-.2084-.2978-.1151-.6171-.1671-.9368-.1526-.3054.017-.6038.1017-.8747.2424-.4089.2-.8523.522-1.4423 1.0593-.0811.0796-.1829.1694-.276.2542-.4848.4491-1.0266 1.0033-1.6701 1.6473-.9955.9881-1.9737 1.9813-2.9484 2.9829l-1.7425 1.7762c-.3182.3239-.608.6737-.8661 1.0457-.2211.3147-.3775.6687-.4607 1.0423-.0466.2869-.0396.5798.0207.8643l.0087.0373c.1377.5874.502 1.0993 1.0162 1.4281.5142.3287 1.1383.4487 1.7407.3345.0725-.01.1445-.0236.2157-.0407l9.2853-2.1083c.7332-.1661 1.4751-.3186 2.1324-.6949.4417-.2491.8609-.4983 1.149-.9999.1535-.2763.2463-.5812.2726-.8949.1432-1.244-.5176-2.6557-1.049-3.7472zm-16.6228 3.8354c.6729-.8305.6729-2.0677.7315-3.0812.2036-3.3812.4158-6.7623.5866-10.1452.0639-1.2812.2036-2.5456.126-3.837-.0639-1.0644-.0708-2.288-.7557-3.1625-1.2077-1.5423-3.7852-1.4152-5.5432-1.1745-.5423.0736-1.0807.1731-1.6131.2982-.5349.1255-1.0662.2627-1.5838.4271-1.6873.5424-4.0595 1.5389-4.4598 3.449-.2277 1.0796.3106 2.1829.7246 3.1693.5055 1.1931 1.1939 2.2693 1.8219 3.393 1.6614 2.9676 3.3521 5.9183 5.0377 8.8706.5055.8813 1.0524 1.9965 2.0272 2.4541.0655.0271.1311.0509.1984.0729.4365.1627.9144.1932 1.3681.0898l.0811-.0169c.421-.1136.8005-.339 1.099-.6491.0552-.0509.1052-.1017.1553-.1576zm-.8057 9.0519c-.2626-.3628-.6353-.6348-1.0648-.777-.4295-.1421-.8938-.1472-1.3264-.0144-.1017.0329-.2009.0731-.2967.1203-.1483.0743-.2897.161-.4227.2593-.3798.294-.7191.6353-1.0093 1.0152-.0741.0932-.1432.2169-.2329.2983l-1.494 2.0168c-.8454 1.1321-1.6822 2.266-2.5086 3.4167-.5417.7441-1.0075 1.3728-1.3784 1.927-.069.1051-.1415.2204-.2071.3153-.4433.6711-.6935 1.1626-.8229 1.5999-.0967.2905-.1273.5983-.0897.9016.0414.3153.1501.6186.3174.8915.0897.1356.1864.2678.2899.3949.2236.2528.4753.4802.7505.6779 1.0317.7051 2.16 1.2118 3.3469 1.6033.9886.322 2.0151.5152 3.0537.5729.1777.0084.3554.005.5314-.0102.1632-.015.3255-.0376.4865-.0678.1611-.0368.3201-.0821.4762-.1356.3036-.1117.5799-.285.8109-.5084.2191-.2153.3882-.4746.4934-.761.1725-.4237.2864-.9593.3623-1.7558.0052-.1136.0224-.2492.0345-.3729.0587-.661.0863-1.4406.1277-2.3524.0742-1.405.1311-2.8032.176-4.2048l.0966-2.4948c.0224-.5728.0034-1.2101-.1588-1.7812-.0713-.2744-.1866-.5358-.3416-.7746zm16.8609 3.9032c-.3105-.3373-.7522-.6712-1.4492-1.0847-.1-.0559-.2191-.1288-.3278-.1932-.5797-.344-1.2784-.7033-2.0944-1.1389-1.2543-.6779-2.5085-1.3355-3.7766-1.9897l-2.2377-1.166c-.1156-.0339-.2329-.1153-.3433-.1678-.4303-.2159-.8872-.376-1.3595-.4763-.1627-.0308-.3277-.0478-.4934-.0508-.1073-.0006-.2145.0057-.3209.0186-.448.068-.8626.2732-1.1848.5864-.3223.3131-.5355.7183-.6095 1.1576-.0328.2796-.0224.5627.0328.8372.1087.5864.3744 1.1644.6504 1.6711l1.1939 2.2016c.666 1.2406 1.3388 2.4744 2.0289 3.7048.4451.8017.8161 1.4881 1.1628 2.0575.0656.1068.1398.222.1967.322.4227.6831.7608 1.1135 1.1042 1.4237.2286.2161.5031.3798.8038.4794s.62.1327.9352.0968c.1642-.0196.3272-.0479.4883-.0847.33-.0868.6489-.2102.9506-.3678.9081-.5 1.7451-1.1155 2.4895-1.8304.8937-.8643 1.6839-1.8067 2.2981-2.8846.0862-.1525.1587-.3101.2208-.4745.0578-.1505.1079-.3038.1501-.4593.0362-.1593.0638-.3186.0828-.4796.0309-.3165-.0061-.6358-.1087-.9373-.1013-.2893-.2662-.5532-.4831-.7728z" fill="#fff"/></svg>